<svg width="30" height="30" viewBox="0 0 30 30" fill="none" xmlns="http://www.w3.org/2000/svg">
<path d="M10.0191 19.0253C10.0191 16.5855 10.0191 14.1469 10.0191 11.7095C10.0191 11.6183 10.0569 11.4821 10.0005 11.4461C9.93451 11.4036 9.84391 11.5103 9.76472 11.5529C8.60202 12.1789 7.43971 12.8058 6.27781 13.4338C5.85784 13.6624 5.43008 13.8879 5.01132 14.1249C4.9655 14.154 4.91199 14.1687 4.85775 14.1669C4.80351 14.1652 4.75103 14.1472 4.70714 14.1153C3.88221 13.6438 3.05968 13.1776 2.23475 12.7096L0.0929238 11.4917C-0.0318658 11.421 -0.0312659 11.4048 0.0965235 11.3304C1.23523 10.6688 2.37373 10.0071 3.51204 9.34512L8.28824 6.56495C10.1281 5.49344 11.9703 4.42233 13.815 3.35162L18.8714 0.411864C19.0915 0.283475 19.3141 0.158085 19.5313 0.0284959C19.5549 0.0110653 19.5832 0.00116746 19.6126 9.70296e-05C19.6419 -0.000973399 19.6709 0.00683347 19.6957 0.0224964C20.1985 0.316472 20.6982 0.606848 21.201 0.900224C22.2685 1.52297 23.3354 2.14612 24.4017 2.76967C25.3248 3.30842 26.2482 3.84718 27.1717 4.38593C27.8142 4.7609 28.455 5.13767 29.0981 5.51084C29.13 5.52895 29.1555 5.55634 29.1714 5.58936C29.1873 5.62238 29.1927 5.65945 29.1869 5.69563C29.1869 6.62075 29.1869 7.54587 29.1869 8.471C29.1869 9.34092 29.1869 10.2109 29.1869 11.0802C29.1913 11.127 29.1812 11.174 29.158 11.2148C29.1348 11.2557 29.0997 11.2885 29.0573 11.3088C27.6442 12.1311 26.2334 12.956 24.8247 13.7836C24.6633 13.8783 24.6561 13.8747 24.8247 13.9719C25.5374 14.3855 26.248 14.8031 26.9563 15.2246C27.6672 15.6476 28.3776 16.079 29.0891 16.4989C29.1809 16.5529 29.1869 16.6243 29.1869 16.7125C29.1869 18.4324 29.1869 20.1532 29.1869 21.8751C29.1869 22.1913 29.1827 22.1847 28.9079 22.3436C27.8976 22.928 26.8861 23.5183 25.8752 24.1057C24.8643 24.6931 23.866 25.272 22.8622 25.8582C21.7651 26.4957 20.6684 27.134 19.5721 27.7732C18.3186 28.5027 17.0655 29.2325 15.8128 29.9624C15.7795 29.9868 15.7392 30 15.6979 30C15.6566 30 15.6164 29.9868 15.583 29.9624C14.5467 29.3385 13.5088 28.7171 12.4693 28.0984C11.7044 27.6412 10.9406 27.181 10.1709 26.7311C10.0371 26.6531 10.0113 26.5649 10.0125 26.4203C10.0209 25.5918 10.0167 24.7626 10.0167 23.9341V19.0253H10.0191ZM15.4966 16.1252C15.4966 18.6674 15.4966 21.2093 15.4966 23.7511C15.4966 23.9209 15.5104 24.0913 15.5146 24.2611C15.5146 24.3337 15.5428 24.3325 15.5944 24.3013C15.6796 24.2491 15.7666 24.1999 15.8524 24.1495L20.6382 21.3459C21.2758 20.9728 21.9145 20.6008 22.5545 20.23C23.002 19.9702 23.4502 19.7123 23.8971 19.4501C24.0285 19.3733 24.0273 19.3637 23.9031 19.2911L21.7307 18.0174C21.0348 17.6094 20.3388 17.2025 19.6429 16.7965C19.6169 16.7834 19.5956 16.7626 19.5819 16.7369C19.5681 16.7113 19.5626 16.682 19.5661 16.6531C19.5661 14.8329 19.5661 13.013 19.5661 11.1936C19.5622 11.1393 19.5748 11.0851 19.6024 11.0382C19.6299 10.9913 19.671 10.9538 19.7203 10.9308C20.8682 10.256 22.0141 9.5795 23.158 8.90116C23.413 8.75057 23.6686 8.60118 23.9229 8.45C24.0327 8.3846 24.0321 8.3798 23.9181 8.31441L23.8983 8.30361C22.4985 7.50128 21.1 6.69814 19.7029 5.89421C19.6685 5.8732 19.6287 5.863 19.5884 5.86493C19.5482 5.86685 19.5095 5.88082 19.4773 5.90501C18.7442 6.33217 18.0112 6.75934 17.2785 7.1865C16.7349 7.50208 16.192 7.81765 15.6442 8.12603C15.5278 8.19142 15.493 8.26941 15.493 8.3996C15.4954 10.9746 15.4956 13.5498 15.4936 16.1252H15.4966Z" fill="#013C58"/>
</svg>
